<svg height="200" width="796" xmlns="http://www.w3.org/2000/svg" xmlns:xlink="http://www.w3.org/1999/xlink"><text x="10" y="180" font-family="helvetica" font-size="10" fill="#aaa">0</text><text x="10" y="140" font-family="helvetica" font-size="10" fill="#aaa">340</text><text x="10" y="100" font-family="helvetica" font-size="10" fill="#aaa">680</text><text x="10" y="60" font-family="helvetica" font-size="10" fill="#aaa">1020</text><text x="10" y="20" font-family="helvetica" font-size="10" fill="#aaa">1360</text><line x1="60" y1="20" x2="60" y2="180" stroke="#eee" stroke-width="1"></line><line x1="60" y1="132.94117647058823" x2="156.57142857142856" y2="151.76470588235293" stroke="#1db34f" stroke-width="1"></line><circle r="4" fill="#1db34f" stroke-width="2" stroke="#FFFFFF" cx="60" cy="132.94117647058823"></circle><line x1="156.57142857142856" y1="20" x2="156.57142857142856" y2="180" stroke="#eee" stroke-width="1"></line><line x1="156.57142857142856" y1="151.76470588235293" x2="253.14285714285714" y2="161.1764705882353" stroke="#1db34f" stroke-width="1"></line><circle r="4" fill="#1db34f" stroke-width="2" stroke="#FFFFFF" cx="156.57142857142856" cy="151.76470588235293"></circle><line x1="253.14285714285714" y1="20" x2="253.14285714285714" y2="180" stroke="#eee" stroke-width="1"></line><line x1="253.14285714285714" y1="161.1764705882353" x2="349.7142857142857" y2="123.52941176470587" stroke="#1db34f" stroke-width="1"></line><circle r="4" fill="#1db34f" stroke-width="2" stroke="#FFFFFF" cx="253.14285714285714" cy="161.1764705882353"></circle><line x1="349.7142857142857" y1="20" x2="349.7142857142857" y2="180" stroke="#eee" stroke-width="1"></line><line x1="349.7142857142857" y1="123.52941176470587" x2="446.2857142857143" y2="20" stroke="#1db34f" stroke-width="1"></line><circle r="4" fill="#1db34f" stroke-width="2" stroke="#FFFFFF" cx="349.7142857142857" cy="123.52941176470587"></circle><line x1="446.2857142857143" y1="20" x2="446.2857142857143" y2="180" stroke="#eee" stroke-width="1"></line><line x1="446.2857142857143" y1="20" x2="542.8571428571429" y2="104.70588235294117" stroke="#1db34f" stroke-width="1"></line><circle r="4" fill="#1db34f" stroke-width="2" stroke="#FFFFFF" cx="446.2857142857143" cy="20"></circle><line x1="542.8571428571429" y1="20" x2="542.8571428571429" y2="180" stroke="#eee" stroke-width="1"></line><line x1="542.8571428571429" y1="104.70588235294117" x2="639.4285714285714" y2="132.94117647058823" stroke="#1db34f" stroke-width="1"></line><circle r="4" fill="#1db34f" stroke-width="2" stroke="#FFFFFF" cx="542.8571428571429" cy="104.70588235294117"></circle><line x1="639.4285714285714" y1="20" x2="639.4285714285714" y2="180" stroke="#eee" stroke-width="1"></line><line x1="736" y1="20" x2="736" y2="180" stroke="#eee" stroke-width="1"></line><line x1="639.4285714285714" y1="132.94117647058823" x2="736" y2="170.58823529411765" stroke="#1db34f" stroke-width="1"></line><circle r="4" fill="#1db34f" stroke-width="2" stroke="#FFFFFF" cx="639.4285714285714" cy="132.94117647058823"></circle><circle r="4" fill="#1db34f" stroke-width="1" stroke="#FFFFFF" cx="736" cy="170.58823529411765"></circle></svg>